<?xml version="1.0" encoding="utf-8"?>
<!-- Generator: Adobe Illustrator 22.1.0, SVG Export Plug-In . SVG Version: 6.00 Build 0)  -->
<svg version="1.1" id="Layer_1" xmlns="http://www.w3.org/2000/svg" xmlns:xlink="http://www.w3.org/1999/xlink" x="0px" y="0px"
	 viewBox="0 0 221 119" style="enable-background:new 0 0 221 119;" xml:space="preserve">
<style type="text/css">
	.st0{enable-background:new    ;}
	.st1{clip-path:url(#SVGID_2_);}
	.st2{font-family:'HFBRSY10';}
	.st3{font-size:9.9626px;}
	.st4{font-family:'HFBR10';}
	.st5{letter-spacing:28;}
	.st6{letter-spacing:25;}
	.st7{letter-spacing:22;}
	.st8{clip-path:url(#SVGID_2_);enable-background:new    ;}
	
		.st9{clip-path:url(#SVGID_4_);fill:none;stroke:#000000;stroke-width:0.25;stroke-linecap:round;stroke-linejoin:round;stroke-miterlimit:10;}
	.st10{clip-path:url(#SVGID_4_);fill:none;stroke:#BEBEBE;stroke-width:0.5;stroke-miterlimit:10;}
	
		.st11{clip-path:url(#SVGID_4_);fill:none;stroke:#AA0000;stroke-width:0.5;stroke-linecap:round;stroke-linejoin:round;stroke-miterlimit:10;}
	.st12{clip-path:url(#SVGID_4_);fill:#AA0000;}
	
		.st13{clip-path:url(#SVGID_4_);fill:none;stroke:#FFA500;stroke-width:0.5;stroke-linecap:round;stroke-linejoin:round;stroke-miterlimit:10;}
	.st14{clip-path:url(#SVGID_4_);fill:#FFA500;}
	.st15{font-family:'SFBMR10';}
	.st16{letter-spacing:3;}
	.st17{font-family:'HFBRMI10';}
	.st18{font-family:'CMSS8';}
	.st19{font-size:6.9738px;}
</style>
<g class="st0">
	<g>
		<defs>
			<rect id="SVGID_1_" x="-112" y="-71" width="720" height="720"/>
		</defs>
		<clipPath id="SVGID_2_">
			<use xlink:href="#SVGID_1_"  style="overflow:visible;"/>
		</clipPath>
		<g class="st1">
			<text transform="matrix(1 0 0 1 11.0166 79.0869)" class="st2 st3">−</text>
		</g>
		<g class="st1">
			<text transform="matrix(1 0 0 1 18.7656 79.0869)" class="st4 st3">2</text>
		</g>
		<g class="st1">
			<text transform="matrix(1 0 0 1 18.7656 57.4868)" class="st4 st3">0</text>
		</g>
		<g class="st1">
			<text transform="matrix(1 0 0 1 18.7656 35.938)" class="st4 st3">2</text>
		</g>
		<g class="st1">
			<text transform="matrix(1 0 0 1 18.7656 14.3379)" class="st4 st3">4</text>
		</g>
		<g class="st1">
			<text transform="matrix(1 0 0 1 29.3809 102.3359)"><tspan x="0" y="0" class="st4 st3 st5">0</tspan><tspan x="33.3" y="0" class="st4 st3">2</tspan><tspan x="38.4" y="0" class="st4 st3 st6">0</tspan><tspan x="69" y="0" class="st4 st3">4</tspan><tspan x="74.1" y="0" class="st4 st3 st6">0</tspan><tspan x="104.7" y="0" class="st4 st3">6</tspan><tspan x="109.8" y="0" class="st4 st3 st6">0</tspan><tspan x="140.5" y="0" class="st4 st3">8</tspan><tspan x="145.6" y="0" class="st4 st3 st7">0</tspan><tspan x="173.6" y="0" class="st4 st3">100</tspan></text>
		</g>
		<g class="st8">
			<g>
				<defs>
					<rect id="SVGID_3_" x="-112" y="-71" width="720" height="720"/>
				</defs>
				<clipPath id="SVGID_4_">
					<use xlink:href="#SVGID_3_"  style="overflow:visible;"/>
				</clipPath>
				<line class="st9" x1="32.5" y1="77.1" x2="28.9" y2="77.1"/>
				<line class="st9" x1="32.5" y1="55.5" x2="28.9" y2="55.5"/>
				<line class="st9" x1="32.5" y1="33.9" x2="28.9" y2="33.9"/>
				<line class="st9" x1="32.5" y1="12.3" x2="28.9" y2="12.3"/>
				<line class="st9" x1="32.5" y1="87.9" x2="32.5" y2="91.4"/>
				<line class="st9" x1="68.5" y1="87.9" x2="68.5" y2="91.4"/>
				<line class="st9" x1="104.5" y1="87.9" x2="104.5" y2="91.4"/>
				<line class="st9" x1="140.4" y1="87.9" x2="140.4" y2="91.4"/>
				<line class="st9" x1="176.4" y1="87.9" x2="176.4" y2="91.4"/>
				<line class="st9" x1="212.4" y1="87.9" x2="212.4" y2="91.4"/>
				<polyline class="st9" points="32.5,1.5 32.5,87.9 212.4,87.9 				"/>
				<line class="st10" x1="32.5" y1="5.9" x2="212.4" y2="5.9"/>
				<polyline class="st11" points="32.5,55.5 34.3,53.5 36.1,55.9 37.9,58.3 39.7,56.4 41.5,54.4 43.3,52.4 45.1,50.5 46.9,52.9 
					48.7,50.9 50.5,53.3 52.3,55.7 54.1,53.8 55.9,51.8 57.7,54.2 59.5,52.2 61.3,54.6 63.1,57.1 64.9,55.1 66.7,53.1 68.5,55.5 
					70.3,57.9 72.1,60.3 73.9,62.7 77.5,58.8 79.3,56.8 81.1,54.9 82.9,52.9 84.7,50.9 88.3,47 90.1,49.4 91.9,47.4 93.7,45.5 
					95.5,47.9 97.3,50.3 99.1,52.7 100.9,55.1 102.7,57.5 104.5,55.6 106.3,53.6 108.1,56 109.9,54 111.7,52.1 113.5,50.1 
					115.3,48.1 117.1,46.2 118.9,44.2 122.5,40.3 124.2,38.3 126.1,36.3 127.9,38.7 129.6,36.8 131.4,34.8 133.2,32.8 135.1,35.2 
					136.9,33.3 138.6,31.3 140.4,29.3 142.2,27.4 144.1,29.8 145.9,27.8 147.6,25.8 149.4,23.9 151.2,21.9 153.1,19.9 154.9,22.3 
					156.6,20.4 158.4,18.4 160.2,20.8 162.1,18.8 163.9,21.2 165.6,23.7 167.4,26.1 169.2,24.1 171.1,26.5 172.9,28.9 174.6,26.9 
					176.4,29.4 178.2,27.4 180.1,25.4 181.9,23.4 183.6,21.5 185.4,23.9 189.1,20 190.9,18 192.6,16 194.4,14.1 196.2,16.5 
					198.1,14.5 199.9,12.5 201.6,10.6 203.4,8.6 205.2,6.6 				"/>
				<path class="st12" d="M33.1,55.5c0,0.8-1.2,0.8-1.2,0C31.9,54.7,33.1,54.7,33.1,55.5"/>
				<path class="st11" d="M33.1,55.5c0,0.8-1.2,0.8-1.2,0C31.9,54.7,33.1,54.7,33.1,55.5"/>
				<path class="st12" d="M34.9,53.5c0,0.8-1.2,0.8-1.2,0S34.9,52.7,34.9,53.5"/>
				<path class="st11" d="M34.9,53.5c0,0.8-1.2,0.8-1.2,0S34.9,52.7,34.9,53.5"/>
				<path class="st12" d="M36.7,55.9c0,0.8-1.2,0.8-1.2,0C35.5,55.1,36.7,55.1,36.7,55.9"/>
				<path class="st11" d="M36.7,55.9c0,0.8-1.2,0.8-1.2,0C35.5,55.1,36.7,55.1,36.7,55.9"/>
				<path class="st12" d="M38.5,58.3c0,0.8-1.2,0.8-1.2,0C37.3,57.5,38.5,57.5,38.5,58.3"/>
				<path class="st11" d="M38.5,58.3c0,0.8-1.2,0.8-1.2,0C37.3,57.5,38.5,57.5,38.5,58.3"/>
				<path class="st12" d="M40.3,56.4c0,0.8-1.2,0.8-1.2,0C39.1,55.6,40.3,55.6,40.3,56.4"/>
				<path class="st11" d="M40.3,56.4c0,0.8-1.2,0.8-1.2,0C39.1,55.6,40.3,55.6,40.3,56.4"/>
				<path class="st12" d="M42.1,54.4c0,0.8-1.2,0.8-1.2,0C40.9,53.6,42.1,53.6,42.1,54.4"/>
				<path class="st11" d="M42.1,54.4c0,0.8-1.2,0.8-1.2,0C40.9,53.6,42.1,53.6,42.1,54.4"/>
				<path class="st12" d="M43.9,52.4c0,0.8-1.2,0.8-1.2,0C42.7,51.6,43.9,51.6,43.9,52.4"/>
				<path class="st11" d="M43.9,52.4c0,0.8-1.2,0.8-1.2,0C42.7,51.6,43.9,51.6,43.9,52.4"/>
				<path class="st12" d="M45.7,50.5c0,0.8-1.2,0.8-1.2,0C44.5,49.7,45.7,49.7,45.7,50.5"/>
				<path class="st11" d="M45.7,50.5c0,0.8-1.2,0.8-1.2,0C44.5,49.7,45.7,49.7,45.7,50.5"/>
				<path class="st12" d="M47.5,52.9c0,0.8-1.2,0.8-1.2,0C46.3,52.1,47.5,52.1,47.5,52.9"/>
				<path class="st11" d="M47.5,52.9c0,0.8-1.2,0.8-1.2,0C46.3,52.1,47.5,52.1,47.5,52.9"/>
				<path class="st12" d="M49.3,50.9c0,0.8-1.2,0.8-1.2,0C48.1,50.1,49.3,50.1,49.3,50.9"/>
				<path class="st11" d="M49.3,50.9c0,0.8-1.2,0.8-1.2,0C48.1,50.1,49.3,50.1,49.3,50.9"/>
				<path class="st12" d="M51.1,53.3c0,0.8-1.2,0.8-1.2,0C49.9,52.5,51.1,52.5,51.1,53.3"/>
				<path class="st11" d="M51.1,53.3c0,0.8-1.2,0.8-1.2,0C49.9,52.5,51.1,52.5,51.1,53.3"/>
				<path class="st12" d="M52.9,55.7c0,0.8-1.2,0.8-1.2,0C51.7,54.9,52.9,54.9,52.9,55.7"/>
				<path class="st11" d="M52.9,55.7c0,0.8-1.2,0.8-1.2,0C51.7,54.9,52.9,54.9,52.9,55.7"/>
				<path class="st12" d="M54.7,53.8c0,0.8-1.2,0.8-1.2,0S54.7,53,54.7,53.8"/>
				<path class="st11" d="M54.7,53.8c0,0.8-1.2,0.8-1.2,0S54.7,53,54.7,53.8"/>
				<path class="st12" d="M56.5,51.8c0,0.8-1.2,0.8-1.2,0S56.5,51,56.5,51.8"/>
				<path class="st11" d="M56.5,51.8c0,0.8-1.2,0.8-1.2,0S56.5,51,56.5,51.8"/>
				<path class="st12" d="M58.3,54.2c0,0.8-1.2,0.8-1.2,0C57.1,53.4,58.3,53.4,58.3,54.2"/>
				<path class="st11" d="M58.3,54.2c0,0.8-1.2,0.8-1.2,0C57.1,53.4,58.3,53.4,58.3,54.2"/>
				<path class="st12" d="M60.1,52.2c0,0.8-1.2,0.8-1.2,0C58.9,51.4,60.1,51.4,60.1,52.2"/>
				<path class="st11" d="M60.1,52.2c0,0.8-1.2,0.8-1.2,0C58.9,51.4,60.1,51.4,60.1,52.2"/>
				<path class="st12" d="M61.9,54.6c0,0.8-1.2,0.8-1.2,0C60.7,53.8,61.9,53.8,61.9,54.6"/>
				<path class="st11" d="M61.9,54.6c0,0.8-1.2,0.8-1.2,0C60.7,53.8,61.9,53.8,61.9,54.6"/>
				<path class="st12" d="M63.7,57.1c0,0.8-1.2,0.8-1.2,0C62.5,56.3,63.7,56.3,63.7,57.1"/>
				<path class="st11" d="M63.7,57.1c0,0.8-1.2,0.8-1.2,0C62.5,56.3,63.7,56.3,63.7,57.1"/>
				<path class="st12" d="M65.5,55.1c0,0.8-1.2,0.8-1.2,0C64.3,54.3,65.5,54.3,65.5,55.1"/>
				<path class="st11" d="M65.5,55.1c0,0.8-1.2,0.8-1.2,0C64.3,54.3,65.5,54.3,65.5,55.1"/>
				<path class="st12" d="M67.3,53.1c0,0.8-1.2,0.8-1.2,0C66.1,52.3,67.3,52.3,67.3,53.1"/>
				<path class="st11" d="M67.3,53.1c0,0.8-1.2,0.8-1.2,0C66.1,52.3,67.3,52.3,67.3,53.1"/>
				<path class="st12" d="M69.1,55.5c0,0.8-1.2,0.8-1.2,0S69.1,54.7,69.1,55.5"/>
				<path class="st11" d="M69.1,55.5c0,0.8-1.2,0.8-1.2,0S69.1,54.7,69.1,55.5"/>
				<path class="st12" d="M70.9,57.9c0,0.8-1.2,0.8-1.2,0C69.7,57.1,70.9,57.1,70.9,57.9"/>
				<path class="st11" d="M70.9,57.9c0,0.8-1.2,0.8-1.2,0C69.7,57.1,70.9,57.1,70.9,57.9"/>
				<path class="st12" d="M72.7,60.3c0,0.8-1.2,0.8-1.2,0C71.5,59.5,72.7,59.5,72.7,60.3"/>
				<path class="st11" d="M72.7,60.3c0,0.8-1.2,0.8-1.2,0C71.5,59.5,72.7,59.5,72.7,60.3"/>
				<path class="st12" d="M74.5,62.7c0,0.8-1.2,0.8-1.2,0C73.3,61.9,74.5,61.9,74.5,62.7"/>
				<path class="st11" d="M74.5,62.7c0,0.8-1.2,0.8-1.2,0C73.3,61.9,74.5,61.9,74.5,62.7"/>
				<path class="st12" d="M76.3,60.8c0,0.8-1.2,0.8-1.2,0S76.3,60,76.3,60.8"/>
				<path class="st11" d="M76.3,60.8c0,0.8-1.2,0.8-1.2,0S76.3,60,76.3,60.8"/>
				<path class="st12" d="M78.1,58.8c0,0.8-1.2,0.8-1.2,0C76.9,58,78.1,58,78.1,58.8"/>
				<path class="st11" d="M78.1,58.8c0,0.8-1.2,0.8-1.2,0C76.9,58,78.1,58,78.1,58.8"/>
				<path class="st12" d="M79.9,56.8c0,0.8-1.2,0.8-1.2,0C78.7,56,79.9,56,79.9,56.8"/>
				<path class="st11" d="M79.9,56.8c0,0.8-1.2,0.8-1.2,0C78.7,56,79.9,56,79.9,56.8"/>
				<path class="st12" d="M81.7,54.9c0,0.8-1.2,0.8-1.2,0C80.5,54.1,81.7,54.1,81.7,54.9"/>
				<path class="st11" d="M81.7,54.9c0,0.8-1.2,0.8-1.2,0C80.5,54.1,81.7,54.1,81.7,54.9"/>
				<path class="st12" d="M83.5,52.9c0,0.8-1.2,0.8-1.2,0C82.3,52.1,83.5,52.1,83.5,52.9"/>
				<path class="st11" d="M83.5,52.9c0,0.8-1.2,0.8-1.2,0C82.3,52.1,83.5,52.1,83.5,52.9"/>
				<path class="st12" d="M85.3,50.9c0,0.8-1.2,0.8-1.2,0C84.1,50.1,85.3,50.1,85.3,50.9"/>
				<path class="st11" d="M85.3,50.9c0,0.8-1.2,0.8-1.2,0C84.1,50.1,85.3,50.1,85.3,50.9"/>
				<path class="st12" d="M87.1,49c0,0.8-1.2,0.8-1.2,0C85.9,48.2,87.1,48.2,87.1,49"/>
				<path class="st11" d="M87.1,49c0,0.8-1.2,0.8-1.2,0C85.9,48.2,87.1,48.2,87.1,49"/>
				<path class="st12" d="M88.9,47c0,0.8-1.2,0.8-1.2,0S88.9,46.2,88.9,47"/>
				<path class="st11" d="M88.9,47c0,0.8-1.2,0.8-1.2,0S88.9,46.2,88.9,47"/>
				<path class="st12" d="M90.7,49.4c0,0.8-1.2,0.8-1.2,0C89.5,48.6,90.7,48.6,90.7,49.4"/>
				<path class="st11" d="M90.7,49.4c0,0.8-1.2,0.8-1.2,0C89.5,48.6,90.7,48.6,90.7,49.4"/>
				<path class="st12" d="M92.5,47.4c0,0.8-1.2,0.8-1.2,0C91.3,46.6,92.5,46.6,92.5,47.4"/>
				<path class="st11" d="M92.5,47.4c0,0.8-1.2,0.8-1.2,0C91.3,46.6,92.5,46.6,92.5,47.4"/>
				<path class="st12" d="M94.3,45.5c0,0.8-1.2,0.8-1.2,0C93.1,44.7,94.3,44.7,94.3,45.5"/>
				<path class="st11" d="M94.3,45.5c0,0.8-1.2,0.8-1.2,0C93.1,44.7,94.3,44.7,94.3,45.5"/>
				<path class="st12" d="M96.1,47.9c0,0.8-1.2,0.8-1.2,0C94.9,47.1,96.1,47.1,96.1,47.9"/>
				<path class="st11" d="M96.1,47.9c0,0.8-1.2,0.8-1.2,0C94.9,47.1,96.1,47.1,96.1,47.9"/>
				<path class="st12" d="M97.9,50.3c0,0.8-1.2,0.8-1.2,0S97.9,49.5,97.9,50.3"/>
				<path class="st11" d="M97.9,50.3c0,0.8-1.2,0.8-1.2,0S97.9,49.5,97.9,50.3"/>
				<path class="st12" d="M99.7,52.7c0,0.8-1.2,0.8-1.2,0C98.5,51.9,99.7,51.9,99.7,52.7"/>
				<path class="st11" d="M99.7,52.7c0,0.8-1.2,0.8-1.2,0C98.5,51.9,99.7,51.9,99.7,52.7"/>
				<path class="st12" d="M101.5,55.1c0,0.8-1.2,0.8-1.2,0C100.3,54.3,101.5,54.3,101.5,55.1"/>
				<path class="st11" d="M101.5,55.1c0,0.8-1.2,0.8-1.2,0C100.3,54.3,101.5,54.3,101.5,55.1"/>
				<path class="st12" d="M103.3,57.5c0,0.8-1.2,0.8-1.2,0S103.3,56.7,103.3,57.5"/>
				<path class="st11" d="M103.3,57.5c0,0.8-1.2,0.8-1.2,0S103.3,56.7,103.3,57.5"/>
				<path class="st12" d="M105.1,55.6c0,0.8-1.2,0.8-1.2,0C103.9,54.8,105.1,54.8,105.1,55.6"/>
				<path class="st11" d="M105.1,55.6c0,0.8-1.2,0.8-1.2,0C103.9,54.8,105.1,54.8,105.1,55.6"/>
				<path class="st12" d="M106.9,53.6c0,0.8-1.2,0.8-1.2,0C105.7,52.8,106.9,52.8,106.9,53.6"/>
				<path class="st11" d="M106.9,53.6c0,0.8-1.2,0.8-1.2,0C105.7,52.8,106.9,52.8,106.9,53.6"/>
				<path class="st12" d="M108.7,56c0,0.8-1.2,0.8-1.2,0C107.5,55.2,108.7,55.2,108.7,56"/>
				<path class="st11" d="M108.7,56c0,0.8-1.2,0.8-1.2,0C107.5,55.2,108.7,55.2,108.7,56"/>
				<path class="st12" d="M110.5,54c0,0.8-1.2,0.8-1.2,0S110.5,53.2,110.5,54"/>
				<path class="st11" d="M110.5,54c0,0.8-1.2,0.8-1.2,0S110.5,53.2,110.5,54"/>
				<path class="st12" d="M112.3,52.1c0,0.8-1.2,0.8-1.2,0C111.1,51.3,112.3,51.3,112.3,52.1"/>
				<path class="st11" d="M112.3,52.1c0,0.8-1.2,0.8-1.2,0C111.1,51.3,112.3,51.3,112.3,52.1"/>
				<path class="st12" d="M114.1,50.1c0,0.8-1.2,0.8-1.2,0C112.9,49.3,114.1,49.3,114.1,50.1"/>
				<path class="st11" d="M114.1,50.1c0,0.8-1.2,0.8-1.2,0C112.9,49.3,114.1,49.3,114.1,50.1"/>
				<path class="st12" d="M115.9,48.1c0,0.8-1.2,0.8-1.2,0C114.7,47.3,115.9,47.3,115.9,48.1"/>
				<path class="st11" d="M115.9,48.1c0,0.8-1.2,0.8-1.2,0C114.7,47.3,115.9,47.3,115.9,48.1"/>
				<path class="st12" d="M117.7,46.2c0,0.8-1.2,0.8-1.2,0C116.5,45.4,117.7,45.4,117.7,46.2"/>
				<path class="st11" d="M117.7,46.2c0,0.8-1.2,0.8-1.2,0C116.5,45.4,117.7,45.4,117.7,46.2"/>
				<path class="st12" d="M119.5,44.2c0,0.8-1.2,0.8-1.2,0C118.3,43.4,119.5,43.4,119.5,44.2"/>
				<path class="st11" d="M119.5,44.2c0,0.8-1.2,0.8-1.2,0C118.3,43.4,119.5,43.4,119.5,44.2"/>
				<path class="st12" d="M121.3,42.2c0,0.8-1.2,0.8-1.2,0C120.1,41.4,121.3,41.4,121.3,42.2"/>
				<path class="st11" d="M121.3,42.2c0,0.8-1.2,0.8-1.2,0C120.1,41.4,121.3,41.4,121.3,42.2"/>
				<path class="st12" d="M123.1,40.3c0,0.8-1.2,0.8-1.2,0S123.1,39.5,123.1,40.3"/>
				<path class="st11" d="M123.1,40.3c0,0.8-1.2,0.8-1.2,0S123.1,39.5,123.1,40.3"/>
				<path class="st12" d="M124.9,38.3c0,0.8-1.2,0.8-1.2,0S124.9,37.5,124.9,38.3"/>
				<path class="st11" d="M124.9,38.3c0,0.8-1.2,0.8-1.2,0S124.9,37.5,124.9,38.3"/>
				<path class="st12" d="M126.6,36.3c0,0.8-1.2,0.8-1.2,0C125.4,35.5,126.6,35.5,126.6,36.3"/>
				<path class="st11" d="M126.6,36.3c0,0.8-1.2,0.8-1.2,0C125.4,35.5,126.6,35.5,126.6,36.3"/>
				<path class="st12" d="M128.4,38.7c0,0.8-1.2,0.8-1.2,0C127.2,37.9,128.4,37.9,128.4,38.7"/>
				<path class="st11" d="M128.4,38.7c0,0.8-1.2,0.8-1.2,0C127.2,37.9,128.4,37.9,128.4,38.7"/>
				<path class="st12" d="M130.2,36.8c0,0.8-1.2,0.8-1.2,0S130.2,36,130.2,36.8"/>
				<path class="st11" d="M130.2,36.8c0,0.8-1.2,0.8-1.2,0S130.2,36,130.2,36.8"/>
				<path class="st12" d="M132.1,34.8c0,0.8-1.2,0.8-1.2,0S132.1,34,132.1,34.8"/>
				<path class="st11" d="M132.1,34.8c0,0.8-1.2,0.8-1.2,0S132.1,34,132.1,34.8"/>
				<path class="st12" d="M133.9,32.8c0,0.8-1.2,0.8-1.2,0C132.6,32,133.9,32,133.9,32.8"/>
				<path class="st11" d="M133.9,32.8c0,0.8-1.2,0.8-1.2,0C132.6,32,133.9,32,133.9,32.8"/>
				<path class="st12" d="M135.6,35.2c0,0.8-1.2,0.8-1.2,0C134.4,34.4,135.6,34.4,135.6,35.2"/>
				<path class="st11" d="M135.6,35.2c0,0.8-1.2,0.8-1.2,0C134.4,34.4,135.6,34.4,135.6,35.2"/>
				<path class="st12" d="M137.4,33.3c0,0.8-1.2,0.8-1.2,0S137.4,32.5,137.4,33.3"/>
				<path class="st11" d="M137.4,33.3c0,0.8-1.2,0.8-1.2,0S137.4,32.5,137.4,33.3"/>
				<path class="st12" d="M139.2,31.3c0,0.8-1.2,0.8-1.2,0S139.2,30.5,139.2,31.3"/>
				<path class="st11" d="M139.2,31.3c0,0.8-1.2,0.8-1.2,0S139.2,30.5,139.2,31.3"/>
				<path class="st12" d="M141.1,29.3c0,0.8-1.2,0.8-1.2,0C139.9,28.5,141.1,28.5,141.1,29.3"/>
				<path class="st11" d="M141.1,29.3c0,0.8-1.2,0.8-1.2,0C139.9,28.5,141.1,28.5,141.1,29.3"/>
				<path class="st12" d="M142.9,27.4c0,0.8-1.2,0.8-1.2,0C141.6,26.6,142.9,26.6,142.9,27.4"/>
				<path class="st11" d="M142.9,27.4c0,0.8-1.2,0.8-1.2,0C141.6,26.6,142.9,26.6,142.9,27.4"/>
				<path class="st12" d="M144.6,29.8c0,0.8-1.2,0.8-1.2,0S144.6,29,144.6,29.8"/>
				<path class="st11" d="M144.6,29.8c0,0.8-1.2,0.8-1.2,0S144.6,29,144.6,29.8"/>
				<path class="st12" d="M146.4,27.8c0,0.8-1.2,0.8-1.2,0S146.4,27,146.4,27.8"/>
				<path class="st11" d="M146.4,27.8c0,0.8-1.2,0.8-1.2,0S146.4,27,146.4,27.8"/>
				<path class="st12" d="M148.2,25.8c0,0.8-1.2,0.8-1.2,0C147.1,25,148.2,25,148.2,25.8"/>
				<path class="st11" d="M148.2,25.8c0,0.8-1.2,0.8-1.2,0C147.1,25,148.2,25,148.2,25.8"/>
				<path class="st12" d="M150.1,23.9c0,0.8-1.2,0.8-1.2,0C148.9,23.1,150.1,23.1,150.1,23.9"/>
				<path class="st11" d="M150.1,23.9c0,0.8-1.2,0.8-1.2,0C148.9,23.1,150.1,23.1,150.1,23.9"/>
				<path class="st12" d="M151.9,21.9c0,0.8-1.2,0.8-1.2,0C150.6,21.1,151.9,21.1,151.9,21.9"/>
				<path class="st11" d="M151.9,21.9c0,0.8-1.2,0.8-1.2,0C150.6,21.1,151.9,21.1,151.9,21.9"/>
				<path class="st12" d="M153.6,19.9c0,0.8-1.2,0.8-1.2,0C152.4,19.1,153.6,19.1,153.6,19.9"/>
				<path class="st11" d="M153.6,19.9c0,0.8-1.2,0.8-1.2,0C152.4,19.1,153.6,19.1,153.6,19.9"/>
				<path class="st12" d="M155.4,22.3c0,0.8-1.2,0.8-1.2,0C154.2,21.5,155.4,21.5,155.4,22.3"/>
				<path class="st11" d="M155.4,22.3c0,0.8-1.2,0.8-1.2,0C154.2,21.5,155.4,21.5,155.4,22.3"/>
				<path class="st12" d="M157.2,20.4c0,0.8-1.2,0.8-1.2,0C156.1,19.6,157.2,19.6,157.2,20.4"/>
				<path class="st11" d="M157.2,20.4c0,0.8-1.2,0.8-1.2,0C156.1,19.6,157.2,19.6,157.2,20.4"/>
				<path class="st12" d="M159.1,18.4c0,0.8-1.2,0.8-1.2,0C157.9,17.6,159.1,17.6,159.1,18.4"/>
				<path class="st11" d="M159.1,18.4c0,0.8-1.2,0.8-1.2,0C157.9,17.6,159.1,17.6,159.1,18.4"/>
				<path class="st12" d="M160.9,20.8c0,0.8-1.2,0.8-1.2,0C159.6,20,160.9,20,160.9,20.8"/>
				<path class="st11" d="M160.9,20.8c0,0.8-1.2,0.8-1.2,0C159.6,20,160.9,20,160.9,20.8"/>
				<path class="st12" d="M162.6,18.8c0,0.8-1.2,0.8-1.2,0C161.4,18,162.6,18,162.6,18.8"/>
				<path class="st11" d="M162.6,18.8c0,0.8-1.2,0.8-1.2,0C161.4,18,162.6,18,162.6,18.8"/>
				<path class="st12" d="M164.4,21.2c0,0.8-1.2,0.8-1.2,0C163.2,20.4,164.4,20.4,164.4,21.2"/>
				<path class="st11" d="M164.4,21.2c0,0.8-1.2,0.8-1.2,0C163.2,20.4,164.4,20.4,164.4,21.2"/>
				<path class="st12" d="M166.2,23.7c0,0.8-1.2,0.8-1.2,0C165.1,22.9,166.2,22.9,166.2,23.7"/>
				<path class="st11" d="M166.2,23.7c0,0.8-1.2,0.8-1.2,0C165.1,22.9,166.2,22.9,166.2,23.7"/>
				<path class="st12" d="M168.1,26.1c0,0.8-1.2,0.8-1.2,0C166.9,25.3,168.1,25.3,168.1,26.1"/>
				<path class="st11" d="M168.1,26.1c0,0.8-1.2,0.8-1.2,0C166.9,25.3,168.1,25.3,168.1,26.1"/>
				<path class="st12" d="M169.9,24.1c0,0.8-1.2,0.8-1.2,0C168.6,23.3,169.9,23.3,169.9,24.1"/>
				<path class="st11" d="M169.9,24.1c0,0.8-1.2,0.8-1.2,0C168.6,23.3,169.9,23.3,169.9,24.1"/>
				<path class="st12" d="M171.6,26.5c0,0.8-1.2,0.8-1.2,0S171.6,25.7,171.6,26.5"/>
				<path class="st11" d="M171.6,26.5c0,0.8-1.2,0.8-1.2,0S171.6,25.7,171.6,26.5"/>
				<path class="st12" d="M173.4,28.9c0,0.8-1.2,0.8-1.2,0C172.2,28.1,173.4,28.1,173.4,28.9"/>
				<path class="st11" d="M173.4,28.9c0,0.8-1.2,0.8-1.2,0C172.2,28.1,173.4,28.1,173.4,28.9"/>
				<path class="st12" d="M175.2,26.9c0,0.8-1.2,0.8-1.2,0C174.1,26.1,175.2,26.1,175.2,26.9"/>
				<path class="st11" d="M175.2,26.9c0,0.8-1.2,0.8-1.2,0C174.1,26.1,175.2,26.1,175.2,26.9"/>
				<path class="st12" d="M177.1,29.4c0,0.8-1.2,0.8-1.2,0C175.9,28.6,177.1,28.6,177.1,29.4"/>
				<path class="st11" d="M177.1,29.4c0,0.8-1.2,0.8-1.2,0C175.9,28.6,177.1,28.6,177.1,29.4"/>
				<path class="st12" d="M178.9,27.4c0,0.8-1.2,0.8-1.2,0C177.6,26.6,178.9,26.6,178.9,27.4"/>
				<path class="st11" d="M178.9,27.4c0,0.8-1.2,0.8-1.2,0C177.6,26.6,178.9,26.6,178.9,27.4"/>
				<path class="st12" d="M180.6,25.4c0,0.8-1.2,0.8-1.2,0C179.4,24.6,180.6,24.6,180.6,25.4"/>
				<path class="st11" d="M180.6,25.4c0,0.8-1.2,0.8-1.2,0C179.4,24.6,180.6,24.6,180.6,25.4"/>
				<path class="st12" d="M182.4,23.4c0,0.8-1.2,0.8-1.2,0C181.2,22.6,182.4,22.6,182.4,23.4"/>
				<path class="st11" d="M182.4,23.4c0,0.8-1.2,0.8-1.2,0C181.2,22.6,182.4,22.6,182.4,23.4"/>
				<path class="st12" d="M184.2,21.5c0,0.8-1.2,0.8-1.2,0C183.1,20.7,184.2,20.7,184.2,21.5"/>
				<path class="st11" d="M184.2,21.5c0,0.8-1.2,0.8-1.2,0C183.1,20.7,184.2,20.7,184.2,21.5"/>
				<path class="st12" d="M186.1,23.9c0,0.8-1.2,0.8-1.2,0C184.9,23.1,186.1,23.1,186.1,23.9"/>
				<path class="st11" d="M186.1,23.9c0,0.8-1.2,0.8-1.2,0C184.9,23.1,186.1,23.1,186.1,23.9"/>
				<path class="st12" d="M187.9,21.9c0,0.8-1.2,0.8-1.2,0C186.6,21.1,187.9,21.1,187.9,21.9"/>
				<path class="st11" d="M187.9,21.9c0,0.8-1.2,0.8-1.2,0C186.6,21.1,187.9,21.1,187.9,21.9"/>
				<path class="st12" d="M189.6,20c0,0.8-1.2,0.8-1.2,0C188.4,19.2,189.6,19.2,189.6,20"/>
				<path class="st11" d="M189.6,20c0,0.8-1.2,0.8-1.2,0C188.4,19.2,189.6,19.2,189.6,20"/>
				<path class="st12" d="M191.4,18c0,0.8-1.2,0.8-1.2,0C190.2,17.2,191.4,17.2,191.4,18"/>
				<path class="st11" d="M191.4,18c0,0.8-1.2,0.8-1.2,0C190.2,17.2,191.4,17.2,191.4,18"/>
				<path class="st12" d="M193.2,16c0,0.8-1.2,0.8-1.2,0S193.2,15.2,193.2,16"/>
				<path class="st11" d="M193.2,16c0,0.8-1.2,0.8-1.2,0S193.2,15.2,193.2,16"/>
				<path class="st12" d="M195.1,14.1c0,0.8-1.2,0.8-1.2,0C193.9,13.3,195.1,13.3,195.1,14.1"/>
				<path class="st11" d="M195.1,14.1c0,0.8-1.2,0.8-1.2,0C193.9,13.3,195.1,13.3,195.1,14.1"/>
				<path class="st12" d="M196.9,16.5c0,0.8-1.2,0.8-1.2,0C195.6,15.7,196.9,15.7,196.9,16.5"/>
				<path class="st11" d="M196.9,16.5c0,0.8-1.2,0.8-1.2,0C195.6,15.7,196.9,15.7,196.9,16.5"/>
				<path class="st12" d="M198.6,14.5c0,0.8-1.2,0.8-1.2,0C197.4,13.7,198.6,13.7,198.6,14.5"/>
				<path class="st11" d="M198.6,14.5c0,0.8-1.2,0.8-1.2,0C197.4,13.7,198.6,13.7,198.6,14.5"/>
				<path class="st12" d="M200.4,12.5c0,0.8-1.2,0.8-1.2,0S200.4,11.7,200.4,12.5"/>
				<path class="st11" d="M200.4,12.5c0,0.8-1.2,0.8-1.2,0S200.4,11.7,200.4,12.5"/>
				<path class="st12" d="M202.2,10.6c0,0.8-1.2,0.8-1.2,0C201.1,9.8,202.2,9.8,202.2,10.6"/>
				<path class="st11" d="M202.2,10.6c0,0.8-1.2,0.8-1.2,0C201.1,9.8,202.2,9.8,202.2,10.6"/>
				<path class="st12" d="M204.1,8.6c0,0.8-1.2,0.8-1.2,0C202.9,7.8,204.1,7.8,204.1,8.6"/>
				<path class="st11" d="M204.1,8.6c0,0.8-1.2,0.8-1.2,0C202.9,7.8,204.1,7.8,204.1,8.6"/>
				<path class="st12" d="M205.9,6.6c0,0.8-1.2,0.8-1.2,0C204.6,5.8,205.9,5.8,205.9,6.6"/>
				<path class="st11" d="M205.9,6.6c0,0.8-1.2,0.8-1.2,0C204.6,5.8,205.9,5.8,205.9,6.6"/>
				<polyline class="st13" points="32.5,55.5 34.3,50.4 36.1,60.3 37.9,70.2 39.7,65.1 41.5,60.1 43.3,55 45.1,49.9 46.9,44.8 
					48.7,39.8 50.5,49.7 52.3,59.5 54.1,54.5 55.9,49.4 57.7,59.3 59.5,54.2 61.3,64.1 63.1,59 64.9,54 66.7,48.9 68.5,58.8 
					70.3,68.7 72.1,63.6 73.9,73.5 75.7,68.4 77.5,63.3 79.3,58.3 81.1,53.2 82.9,48.1 84.7,43 86.5,38 88.3,32.9 90.1,27.8 
					91.9,22.8 93.7,17.7 95.5,27.6 97.3,22.5 99.1,17.4 100.9,27.3 102.7,37.2 104.5,32.1 106.3,27.1 108.1,22 109.9,16.9 
					111.7,11.8 113.5,6.8 				"/>
				<path class="st14" d="M33.1,55.5c0,0.8-1.2,0.8-1.2,0C31.9,54.7,33.1,54.7,33.1,55.5"/>
				<path class="st13" d="M33.1,55.5c0,0.8-1.2,0.8-1.2,0C31.9,54.7,33.1,54.7,33.1,55.5"/>
				<path class="st14" d="M34.9,50.4c0,0.8-1.2,0.8-1.2,0C33.7,49.6,34.9,49.6,34.9,50.4"/>
				<path class="st13" d="M34.9,50.4c0,0.8-1.2,0.8-1.2,0C33.7,49.6,34.9,49.6,34.9,50.4"/>
				<path class="st14" d="M36.7,60.3c0,0.8-1.2,0.8-1.2,0C35.5,59.5,36.7,59.5,36.7,60.3"/>
				<path class="st13" d="M36.7,60.3c0,0.8-1.2,0.8-1.2,0C35.5,59.5,36.7,59.5,36.7,60.3"/>
				<path class="st14" d="M38.5,70.2c0,0.8-1.2,0.8-1.2,0C37.3,69.4,38.5,69.4,38.5,70.2"/>
				<path class="st13" d="M38.5,70.2c0,0.8-1.2,0.8-1.2,0C37.3,69.4,38.5,69.4,38.5,70.2"/>
				<path class="st14" d="M40.3,65.1c0,0.8-1.2,0.8-1.2,0C39.1,64.3,40.3,64.3,40.3,65.1"/>
				<path class="st13" d="M40.3,65.1c0,0.8-1.2,0.8-1.2,0C39.1,64.3,40.3,64.3,40.3,65.1"/>
				<path class="st14" d="M42.1,60.1c0,0.8-1.2,0.8-1.2,0C40.9,59.3,42.1,59.3,42.1,60.1"/>
				<path class="st13" d="M42.1,60.1c0,0.8-1.2,0.8-1.2,0C40.9,59.3,42.1,59.3,42.1,60.1"/>
				<path class="st14" d="M43.9,55c0,0.8-1.2,0.8-1.2,0C42.7,54.2,43.9,54.2,43.9,55"/>
				<path class="st13" d="M43.9,55c0,0.8-1.2,0.8-1.2,0C42.7,54.2,43.9,54.2,43.9,55"/>
				<path class="st14" d="M45.7,49.9c0,0.8-1.2,0.8-1.2,0C44.5,49.1,45.7,49.1,45.7,49.9"/>
				<path class="st13" d="M45.7,49.9c0,0.8-1.2,0.8-1.2,0C44.5,49.1,45.7,49.1,45.7,49.9"/>
				<path class="st14" d="M47.5,44.8c0,0.8-1.2,0.8-1.2,0C46.3,44,47.5,44,47.5,44.8"/>
				<path class="st13" d="M47.5,44.8c0,0.8-1.2,0.8-1.2,0C46.3,44,47.5,44,47.5,44.8"/>
				<path class="st14" d="M49.3,39.8c0,0.8-1.2,0.8-1.2,0S49.3,39,49.3,39.8"/>
				<path class="st13" d="M49.3,39.8c0,0.8-1.2,0.8-1.2,0S49.3,39,49.3,39.8"/>
				<path class="st14" d="M51.1,49.7c0,0.8-1.2,0.8-1.2,0C49.9,48.9,51.1,48.9,51.1,49.7"/>
				<path class="st13" d="M51.1,49.7c0,0.8-1.2,0.8-1.2,0C49.9,48.9,51.1,48.9,51.1,49.7"/>
				<path class="st14" d="M52.9,59.5c0,0.8-1.2,0.8-1.2,0S52.9,58.7,52.9,59.5"/>
				<path class="st13" d="M52.9,59.5c0,0.8-1.2,0.8-1.2,0S52.9,58.7,52.9,59.5"/>
				<path class="st14" d="M54.7,54.5c0,0.8-1.2,0.8-1.2,0C53.5,53.7,54.7,53.7,54.7,54.5"/>
				<path class="st13" d="M54.7,54.5c0,0.8-1.2,0.8-1.2,0C53.5,53.7,54.7,53.7,54.7,54.5"/>
				<path class="st14" d="M56.5,49.4c0,0.8-1.2,0.8-1.2,0C55.3,48.6,56.5,48.6,56.5,49.4"/>
				<path class="st13" d="M56.5,49.4c0,0.8-1.2,0.8-1.2,0C55.3,48.6,56.5,48.6,56.5,49.4"/>
				<path class="st14" d="M58.3,59.3c0,0.8-1.2,0.8-1.2,0S58.3,58.5,58.3,59.3"/>
				<path class="st13" d="M58.3,59.3c0,0.8-1.2,0.8-1.2,0S58.3,58.5,58.3,59.3"/>
				<path class="st14" d="M60.1,54.2c0,0.8-1.2,0.8-1.2,0C58.9,53.4,60.1,53.4,60.1,54.2"/>
				<path class="st13" d="M60.1,54.2c0,0.8-1.2,0.8-1.2,0C58.9,53.4,60.1,53.4,60.1,54.2"/>
				<path class="st14" d="M61.9,64.1c0,0.8-1.2,0.8-1.2,0C60.7,63.3,61.9,63.3,61.9,64.1"/>
				<path class="st13" d="M61.9,64.1c0,0.8-1.2,0.8-1.2,0C60.7,63.3,61.9,63.3,61.9,64.1"/>
				<path class="st14" d="M63.7,59c0,0.8-1.2,0.8-1.2,0S63.7,58.2,63.7,59"/>
				<path class="st13" d="M63.7,59c0,0.8-1.2,0.8-1.2,0S63.7,58.2,63.7,59"/>
				<path class="st14" d="M65.5,54c0,0.8-1.2,0.8-1.2,0C64.3,53.2,65.5,53.2,65.5,54"/>
				<path class="st13" d="M65.5,54c0,0.8-1.2,0.8-1.2,0C64.3,53.2,65.5,53.2,65.5,54"/>
				<path class="st14" d="M67.3,48.9c0,0.8-1.2,0.8-1.2,0C66.1,48.1,67.3,48.1,67.3,48.9"/>
				<path class="st13" d="M67.3,48.9c0,0.8-1.2,0.8-1.2,0C66.1,48.1,67.3,48.1,67.3,48.9"/>
				<path class="st14" d="M69.1,58.8c0,0.8-1.2,0.8-1.2,0S69.1,58,69.1,58.8"/>
				<path class="st13" d="M69.1,58.8c0,0.8-1.2,0.8-1.2,0S69.1,58,69.1,58.8"/>
				<path class="st14" d="M70.9,68.7c0,0.8-1.2,0.8-1.2,0C69.7,67.9,70.9,67.9,70.9,68.7"/>
				<path class="st13" d="M70.9,68.7c0,0.8-1.2,0.8-1.2,0C69.7,67.9,70.9,67.9,70.9,68.7"/>
				<path class="st14" d="M72.7,63.6c0,0.8-1.2,0.8-1.2,0C71.5,62.8,72.7,62.8,72.7,63.6"/>
				<path class="st13" d="M72.7,63.6c0,0.8-1.2,0.8-1.2,0C71.5,62.8,72.7,62.8,72.7,63.6"/>
				<path class="st14" d="M74.5,73.5c0,0.8-1.2,0.8-1.2,0C73.3,72.7,74.5,72.7,74.5,73.5"/>
				<path class="st13" d="M74.5,73.5c0,0.8-1.2,0.8-1.2,0C73.3,72.7,74.5,72.7,74.5,73.5"/>
				<path class="st14" d="M76.3,68.4c0,0.8-1.2,0.8-1.2,0C75.1,67.6,76.3,67.6,76.3,68.4"/>
				<path class="st13" d="M76.3,68.4c0,0.8-1.2,0.8-1.2,0C75.1,67.6,76.3,67.6,76.3,68.4"/>
				<path class="st14" d="M78.1,63.3c0,0.8-1.2,0.8-1.2,0C76.9,62.5,78.1,62.5,78.1,63.3"/>
				<path class="st13" d="M78.1,63.3c0,0.8-1.2,0.8-1.2,0C76.9,62.5,78.1,62.5,78.1,63.3"/>
				<path class="st14" d="M79.9,58.3c0,0.8-1.2,0.8-1.2,0S79.9,57.5,79.9,58.3"/>
				<path class="st13" d="M79.9,58.3c0,0.8-1.2,0.8-1.2,0S79.9,57.5,79.9,58.3"/>
				<path class="st14" d="M81.7,53.2c0,0.8-1.2,0.8-1.2,0C80.5,52.4,81.7,52.4,81.7,53.2"/>
				<path class="st13" d="M81.7,53.2c0,0.8-1.2,0.8-1.2,0C80.5,52.4,81.7,52.4,81.7,53.2"/>
				<path class="st14" d="M83.5,48.1c0,0.8-1.2,0.8-1.2,0C82.3,47.3,83.5,47.3,83.5,48.1"/>
				<path class="st13" d="M83.5,48.1c0,0.8-1.2,0.8-1.2,0C82.3,47.3,83.5,47.3,83.5,48.1"/>
				<path class="st14" d="M85.3,43c0,0.8-1.2,0.8-1.2,0S85.3,42.2,85.3,43"/>
				<path class="st13" d="M85.3,43c0,0.8-1.2,0.8-1.2,0S85.3,42.2,85.3,43"/>
				<path class="st14" d="M87.1,38c0,0.8-1.2,0.8-1.2,0C85.9,37.2,87.1,37.2,87.1,38"/>
				<path class="st13" d="M87.1,38c0,0.8-1.2,0.8-1.2,0C85.9,37.2,87.1,37.2,87.1,38"/>
				<path class="st14" d="M88.9,32.9c0,0.8-1.2,0.8-1.2,0C87.7,32.1,88.9,32.1,88.9,32.9"/>
				<path class="st13" d="M88.9,32.9c0,0.8-1.2,0.8-1.2,0C87.7,32.1,88.9,32.1,88.9,32.9"/>
				<path class="st14" d="M90.7,27.8c0,0.8-1.2,0.8-1.2,0C89.5,27,90.7,27,90.7,27.8"/>
				<path class="st13" d="M90.7,27.8c0,0.8-1.2,0.8-1.2,0C89.5,27,90.7,27,90.7,27.8"/>
				<path class="st14" d="M92.5,22.8c0,0.8-1.2,0.8-1.2,0S92.5,22,92.5,22.8"/>
				<path class="st13" d="M92.5,22.8c0,0.8-1.2,0.8-1.2,0S92.5,22,92.5,22.8"/>
				<path class="st14" d="M94.3,17.7c0,0.8-1.2,0.8-1.2,0C93.1,16.9,94.3,16.9,94.3,17.7"/>
				<path class="st13" d="M94.3,17.7c0,0.8-1.2,0.8-1.2,0C93.1,16.9,94.3,16.9,94.3,17.7"/>
				<path class="st14" d="M96.1,27.6c0,0.8-1.2,0.8-1.2,0C94.9,26.8,96.1,26.8,96.1,27.6"/>
				<path class="st13" d="M96.1,27.6c0,0.8-1.2,0.8-1.2,0C94.9,26.8,96.1,26.8,96.1,27.6"/>
				<path class="st14" d="M97.9,22.5c0,0.8-1.2,0.8-1.2,0C96.7,21.7,97.9,21.7,97.9,22.5"/>
				<path class="st13" d="M97.9,22.5c0,0.8-1.2,0.8-1.2,0C96.7,21.7,97.9,21.7,97.9,22.5"/>
				<path class="st14" d="M99.7,17.4c0,0.8-1.2,0.8-1.2,0C98.5,16.6,99.7,16.6,99.7,17.4"/>
				<path class="st13" d="M99.7,17.4c0,0.8-1.2,0.8-1.2,0C98.5,16.6,99.7,16.6,99.7,17.4"/>
				<path class="st14" d="M101.5,27.3c0,0.8-1.2,0.8-1.2,0C100.3,26.5,101.5,26.5,101.5,27.3"/>
				<path class="st13" d="M101.5,27.3c0,0.8-1.2,0.8-1.2,0C100.3,26.5,101.5,26.5,101.5,27.3"/>
				<path class="st14" d="M103.3,37.2c0,0.8-1.2,0.8-1.2,0C102.1,36.4,103.3,36.4,103.3,37.2"/>
				<path class="st13" d="M103.3,37.2c0,0.8-1.2,0.8-1.2,0C102.1,36.4,103.3,36.4,103.3,37.2"/>
				<path class="st14" d="M105.1,32.1c0,0.8-1.2,0.8-1.2,0C103.9,31.3,105.1,31.3,105.1,32.1"/>
				<path class="st13" d="M105.1,32.1c0,0.8-1.2,0.8-1.2,0C103.9,31.3,105.1,31.3,105.1,32.1"/>
				<path class="st14" d="M106.9,27.1c0,0.8-1.2,0.8-1.2,0C105.7,26.3,106.9,26.3,106.9,27.1"/>
				<path class="st13" d="M106.9,27.1c0,0.8-1.2,0.8-1.2,0C105.7,26.3,106.9,26.3,106.9,27.1"/>
				<path class="st14" d="M108.7,22c0,0.8-1.2,0.8-1.2,0C107.5,21.2,108.7,21.2,108.7,22"/>
				<path class="st13" d="M108.7,22c0,0.8-1.2,0.8-1.2,0C107.5,21.2,108.7,21.2,108.7,22"/>
				<path class="st14" d="M110.5,16.9c0,0.8-1.2,0.8-1.2,0C109.3,16.1,110.5,16.1,110.5,16.9"/>
				<path class="st13" d="M110.5,16.9c0,0.8-1.2,0.8-1.2,0C109.3,16.1,110.5,16.1,110.5,16.9"/>
				<path class="st14" d="M112.3,11.8c0,0.8-1.2,0.8-1.2,0C111.1,11,112.3,11,112.3,11.8"/>
				<path class="st13" d="M112.3,11.8c0,0.8-1.2,0.8-1.2,0C111.1,11,112.3,11,112.3,11.8"/>
				<path class="st14" d="M114.1,6.8c0,0.8-1.2,0.8-1.2,0S114.1,6,114.1,6.8"/>
				<path class="st13" d="M114.1,6.8c0,0.8-1.2,0.8-1.2,0S114.1,6,114.1,6.8"/>
				<polyline class="st9" points="32.5,1.5 32.5,87.9 212.4,87.9 				"/>
			</g>
		</g>
		<g class="st1">
			<text transform="matrix(-1.224647e-16 -1 1 -1.224647e-16 8.6873 92.0337)"><tspan x="0" y="0" class="st15 st3">lo</tspan><tspan x="7.8" y="0" class="st15 st3 st16">g</tspan><tspan x="16.7" y="0" class="st15 st3">li</tspan><tspan x="21.4" y="0" class="st15 st3">k</tspan><tspan x="25.8" y="0" class="st15 st3">elihoo</tspan><tspan x="51.9" y="0" class="st15 st3 st16">d</tspan><tspan x="60.9" y="0" class="st15 st3">ratio</tspan></text>
		</g>
		<g class="st1">
			<text transform="matrix(1 0 0 1 92.5684 115.686)"><tspan x="0" y="0" class="st15 st3">tim</tspan><tspan x="13.9" y="0" class="st15 st3 st16">e</tspan><tspan x="22.2" y="0" class="st15 st3">(</tspan></text>
		</g>
		<g class="st1">
			<text transform="matrix(1 0 0 1 118.6699 115.686)" class="st17 st3">n</text>
		</g>
		<g class="st1">
			<text transform="matrix(1 0 0 1 124.0703 112.0698)" class="st18 st19">th</text>
		</g>
		<g class="st1">
			<text transform="matrix(1 0 0 1 134.3828 115.686)" class="st15 st3">ﬂip)</text>
		</g>
	</g>
</g>
</svg>
